<svg width="21" height="18" viewBox="0 0 21 18" fill="none" xmlns="http://www.w3.org/2000/svg">
<path d="M21 8.95791C21 8.51035 20.8206 8.08113 20.5013 7.76466C20.1819 7.4482 19.7488 7.27041 19.2972 7.27041L5.81081 7.27041L10.2836 2.83791C10.5843 2.51801 10.7481 2.09491 10.7403 1.65773C10.7325 1.22056 10.5538 0.80344 10.2418 0.49426C9.92985 0.185081 9.50894 0.00797612 9.06779 0.000262818C8.62665 -0.00745048 8.1997 0.154829 7.8769 0.452909L0.497996 7.76541C0.179113 8.08181 -4.1479e-07 8.51072 -3.95242e-07 8.95791C-3.75695e-07 9.4051 0.179113 9.834 0.497996 10.1504L7.8769 17.4629C8.03279 17.6287 8.22079 17.7617 8.42967 17.8539C8.63854 17.9461 8.86403 17.9957 9.09267 17.9997C9.32131 18.0037 9.54842 17.9621 9.76045 17.8772C9.97248 17.7923 10.1651 17.666 10.3268 17.5057C10.4885 17.3455 10.616 17.1546 10.7016 16.9445C10.7872 16.7344 10.8293 16.5093 10.8253 16.2827C10.8212 16.0561 10.7712 15.8327 10.6781 15.6257C10.585 15.4187 10.4509 15.2324 10.2836 15.0779L5.81081 10.6454L19.2972 10.6454C20.2371 10.6454 21 9.88941 21 8.95791Z" fill="white"/></svg>
